<?xml version="1.0" standalone="no"?>
<!DOCTYPE svg PUBLIC "-//W3C//DTD SVG 20010904//EN"
 "http://www.w3.org/TR/2001/REC-SVG-20010904/DTD/svg10.dtd">
<svg version="1.0" xmlns="http://www.w3.org/2000/svg"
 width="263.000000pt" height="263.000000pt" viewBox="0 0 263.000000 263.000000"
 preserveAspectRatio="xMidYMid meet">
<metadata>
Created by potrace 1.14, written by Peter Selinger 2001-2017
</metadata>
<g transform="translate(0.000000,263.000000) scale(0.100000,-0.100000)"
fill="#000000" stroke="none">
<path d="M856 2308 c-14 -17 -26 -38 -26 -45 0 -19 24 -16 44 6 18 20 18 20
39 0 24 -22 47 -25 47 -6 0 14 -57 77 -69 77 -4 0 -20 -14 -35 -32z"/>
<path d="M880 2216 c0 -10 9 -16 21 -16 24 0 21 23 -4 28 -10 2 -17 -3 -17
-12z"/>
<path d="M876 2163 c-6 -15 17 -28 33 -19 14 9 3 33 -14 33 -8 0 -17 -7 -19
-14z"/>
<path d="M881 2107 c-5 -7 -6 -18 -2 -26 6 -10 12 -9 25 4 20 20 20 21 2 28
-8 3 -19 0 -25 -6z"/>
<path d="M1541 2040 c-356 -3 -555 -9 -558 -15 -7 -23 18 -40 69 -45 l53 -5 0
-55 0 -55 -92 -3 c-80 -2 -93 -5 -94 -20 0 -9 0 -47 0 -84 0 -39 -5 -71 -12
-75 -6 -3 -42 -8 -80 -9 -77 -3 -74 -1 -79 -29 -3 -19 4 -20 217 -25 l220 -5
0 -115 c0 -63 4 -120 8 -127 4 -6 16 -9 27 -6 19 5 20 14 20 130 l0 124 68 -3
67 -3 0 -180 0 -180 -185 -1 c-246 -2 -240 -2 -247 -20 -13 -35 16 -39 258
-34 l234 5 0 36 c0 51 17 67 66 63 22 -2 44 -6 49 -9 4 -3 9 -58 9 -122 1 -65
6 -122 10 -126 5 -5 17 -5 28 1 16 10 18 26 19 169 0 88 4 164 7 170 4 7 54
11 126 12 127 2 133 0 140 -48 0 -4 11 -8 24 -7 l22 1 3 278 2 278 -27 -3 -28
-3 -2 -210 c-1 -115 -3 -214 -3 -220 0 -6 -58 -10 -156 -9 -102 0 -157 -3
-160 -10 -2 -6 -5 -27 -7 -46 l-3 -35 -57 -1 c-31 -1 -57 1 -58 5 0 3 -1 60
-1 126 l-1 120 49 2 c27 1 55 2 62 2 9 1 12 32 12 122 l0 120 -27 -3 c-28 -3
-28 -3 -28 -83 0 -44 -4 -85 -8 -91 -7 -13 -451 -17 -496 -5 -24 7 -26 11 -24
57 0 27 2 54 2 60 1 7 59 11 186 12 101 0 189 3 193 6 5 3 7 16 5 28 -4 22 -8
23 -101 23 l-97 0 0 58 0 58 253 0 c138 -1 263 -1 277 -1 l25 0 0 -185 c0
-159 2 -186 16 -192 34 -13 39 13 39 197 0 113 4 180 10 181 51 4 236 0 244
-6 8 -4 11 -123 11 -371 l0 -365 -77 2 c-75 2 -78 1 -81 -21 -5 -32 14 -41 85
-39 35 1 65 0 68 -3 3 -3 6 -134 8 -292 2 -248 0 -286 -13 -287 -8 0 -56 -1
-106 -1 -89 1 -92 0 -97 -23 -2 -14 -2 -27 1 -30 3 -3 65 -5 139 -5 100 0 133
3 133 13 2 111 -1 1491 -2 1491 -2 1 -252 -1 -557 -4z"/>
<path d="M540 1290 l0 -750 560 0 560 0 0 30 0 29 -82 3 -83 3 0 45 0 45 223
3 c167 2 222 5 223 15 0 10 0 336 -1 360 0 15 -49 6 -54 -10 -3 -10 -4 -82 -3
-161 1 -89 -2 -142 -8 -142 -5 0 -125 -1 -265 -1 -140 0 -263 -3 -272 -5 -11
-3 -18 -15 -18 -29 0 -22 4 -24 58 -27 l57 -3 0 -50 c0 -33 -4 -49 -12 -48 -6
2 -196 3 -421 3 l-410 1 1 122 c0 74 5 125 11 129 6 4 59 8 118 8 59 0 110 4
113 10 3 5 1 18 -4 28 -9 16 -24 19 -118 20 -59 1 -110 2 -113 2 -4 0 -5 420
-1 470 1 13 15 16 71 16 l70 0 1 -60 c3 -261 5 -325 12 -332 4 -4 55 -8 115
-8 l107 -1 3 -114 c1 -63 -1 -118 -5 -122 -5 -5 -59 -9 -121 -10 -100 -1 -114
-3 -123 -20 -5 -11 -7 -24 -4 -29 4 -6 95 -10 231 -10 l224 0 0 31 0 30 -57 0
c-32 -1 -65 0 -73 1 -13 1 -14 20 -10 122 l5 121 165 0 165 0 0 -40 0 -40
-109 -5 c-98 -4 -110 -7 -116 -25 -4 -11 -6 -23 -3 -27 2 -5 145 -8 317 -8
l313 0 2 190 c2 198 -3 230 -39 227 -19 -1 -20 -8 -20 -179 0 -163 -2 -178
-17 -178 -33 -1 -248 1 -258 2 -6 1 -9 26 -8 58 1 31 -2 61 -6 68 -5 8 -95 12
-316 14 l-310 3 0 170 0 170 108 1 c110 1 133 8 121 37 -5 15 -32 17 -222 19
l-217 3 0 150 c0 203 -3 194 54 193 97 -1 122 2 128 18 10 27 -14 37 -89 35
-40 -1 -78 2 -84 6 -5 5 -10 32 -11 61 l0 52 93 1 c125 2 119 0 122 32 l3 27
-135 0 -136 0 0 -750z"/>
<path d="M1707 422 c-36 -40 -9 -102 45 -102 49 0 78 69 42 104 -21 22 -67 20
-87 -2z"/>
</g>
</svg>
